<?xml version="1.0" encoding="utf-8"?>
<!-- Generator: Adobe Illustrator 27.1.0, SVG Export Plug-In . SVG Version: 6.00 Build 0)  -->
<svg version="1.1" id="레이어_1" xmlns="http://www.w3.org/2000/svg" xmlns:xlink="http://www.w3.org/1999/xlink" x="0px"
	 y="0px" viewBox="0 0 512 512" style="enable-background:new 0 0 512 512;" xml:space="preserve">
<style type="text/css">
	.st0{fill:#586477;}
</style>
<path class="st0" d="M470.6,278.6c12.5-12.5,12.5-32.8,0-45.3l-160-160c-12.5-12.5-32.8-12.5-45.3,0s-12.5,32.8,0,45.3L402.7,256
	L265.4,393.4c-12.5,12.5-12.5,32.8,0,45.3s32.8,12.5,45.3,0L470.6,278.6L470.6,278.6z M118.6,438.6l160-160
	c12.5-12.5,12.5-32.8,0-45.3l-160-160c-12.5-12.5-32.8-12.5-45.3,0s-12.5,32.8,0,45.3L210.7,256L73.4,393.4
	c-12.5,12.5-12.5,32.8,0,45.3S106.2,451.2,118.6,438.6L118.6,438.6z"/>
</svg>
