<?xml version="1.0" encoding="utf-8"?>
<!-- Generator: Adobe Illustrator 27.1.0, SVG Export Plug-In . SVG Version: 6.00 Build 0)  -->
<svg version="1.1" id="레이어_1" xmlns="http://www.w3.org/2000/svg" xmlns:xlink="http://www.w3.org/1999/xlink" x="0px"
	 y="0px" viewBox="0 0 448 512" style="enable-background:new 0 0 448 512;" xml:space="preserve">
<path d="M317.5,24.9L354.2,80H424c13.3,0,24,10.8,24,24c0,13.3-10.7,24-24,24h-8v304c0,44.2-35.8,80-80,80H112
	c-44.2,0-80-35.8-80-80V128h-8c-13.2,0-24-10.7-24-24c0-13.2,10.8-24,24-24h69.8l36.7-55.1C140.9,9.4,158.4,0,177.1,0h93.8
	C289.6,0,307.1,9.4,317.5,24.9L317.5,24.9z M151.5,80h145l-19-28.4c-1.5-2.2-4-3.6-6.6-3.6h-93.8c-2.6,0-6,1.3-6.6,3.6L151.5,80z
	 M80,432c0,17.7,14.3,32,32,32h224c17.7,0,32-14.3,32-32V128H80V432z"/>
</svg>
